<?xml version="1.0" encoding="UTF-8" standalone="no"?>
<!-- Created with Inkscape (http://www.inkscape.org/) -->

<svg
   xmlns:dc="http://purl.org/dc/elements/1.1/"
   xmlns:cc="http://creativecommons.org/ns#"
   xmlns:rdf="http://www.w3.org/1999/02/22-rdf-syntax-ns#"
   xmlns:svg="http://www.w3.org/2000/svg"
   xmlns="http://www.w3.org/2000/svg"
   xmlns:sodipodi="http://sodipodi.sourceforge.net/DTD/sodipodi-0.dtd"
   xmlns:inkscape="http://www.inkscape.org/namespaces/inkscape"
   id="svg2"
   version="1.1"
   inkscape:version="0.48.4 r9939"
   width="96"
   height="96"
   xml:space="preserve"
   sodipodi:docname="logo_uneg.svg"><metadata
     id="metadata8"><rdf:RDF><cc:Work
         rdf:about=""><dc:format>image/svg+xml</dc:format><dc:type
           rdf:resource="http://purl.org/dc/dcmitype/StillImage" /><dc:title /></cc:Work></rdf:RDF></metadata><defs
     id="defs6" /><sodipodi:namedview
     pagecolor="#ffffff"
     bordercolor="#666666"
     borderopacity="1"
     objecttolerance="10"
     gridtolerance="10"
     guidetolerance="10"
     inkscape:pageopacity="0"
     inkscape:pageshadow="2"
     inkscape:window-width="1366"
     inkscape:window-height="744"
     id="namedview4"
     showgrid="false"
     inkscape:zoom="3.7949749"
     inkscape:cx="49.638475"
     inkscape:cy="27.706952"
     inkscape:window-x="0"
     inkscape:window-y="24"
     inkscape:window-maximized="1"
     inkscape:current-layer="g10"
     borderlayer="true" /><g
     id="g10"
     inkscape:groupmode="layer"
     inkscape:label="ink_ext_XXXXXX"
     transform="matrix(1.25,0,0,-1.25,0,96)"><g
       id="g12"
       transform="matrix(0.03870543,0,0,0.03895625,-0.09026221,-0.38012771)"><path
         d="m 277.133,1981.2 1434.907,0 c 150.98,0 274.51,-123.53 274.51,-274.5 l 0,-112.05 -603.98,0 c 6.75,-98.52 18.28,-198.1 41.18,-296.44 l -858.406,0 c 22.859,98.34 34.355,197.92 41.094,296.44 l -604.10597,0 0,18.46 0.29688,0 0,93.59 c 0,150.97 123.52709,274.5 274.50409,274.5 z m -90.848,-1489.145 38.481,0 c 8.98,-0.317 15.543,-7.02 15.543,-16.387 l 0,-248.297 c 0,-13 10.636,-23.637 23.636,-23.637 l 141.84,0 c 13,0 23.641,10.637 23.641,23.637 0,81.691 0,163.379 0,245.067 0.043,4.324 0.648,19.617 17.617,19.617 l 36.402,0 c 9.082,0 16.504,-7.426 16.504,-16.508 l 0,-269.879 c 0,-45.398 -37.137,-82.539 -82.539,-82.539 l -165.09,0 c -45.402,0 -82.543,37.141 -82.543,82.539 l 0,269.879 c 0,9.082 7.426,16.508 16.508,16.508 z m 1454.975,-139.75 177.84,0 0,-224.348 c 0,-2.352 -2.74,-4.312 -6.33,-4.738 l -0.08,-0.008 -0.1,-0.016 c -0.32,-0.043 -0.63,-0.066 -0.95,-0.066 l -315.26,0 c -4.1,0 -7.45,3.351 -7.45,7.453 l 0,354.016 c 0,4.105 3.35,7.457 7.45,7.457 l 315.26,0 c 4.11,0 7.46,-3.352 7.46,-7.457 l 0,-59.653 c 0,-4.101 -3.35,-7.457 -7.46,-7.457 l -244.97,0 0,-219.797 174.69,0 0,80.047 -100.1,0 c -2.26,0 -4.11,3.352 -4.11,7.453 l 0,59.657 c 0,4.101 1.85,7.457 4.11,7.457 z m -507.84,-157.762 230.69,0 c 9.82,0 17.86,-8.031 17.86,-17.855 l 0,-35.704 c 0,-9.824 -8.04,-17.855 -17.86,-17.855 l -279.33,0 c -18.1,0 -32.99,14.859 -32.99,33.016 l 0,302.89 c 0,18.164 14.89,33.02 32.99,33.02 l 279.33,0 c 9.82,0 17.86,-8.035 17.86,-17.856 l 0,-35.707 c 0,-9.82 -8.04,-17.855 -17.86,-17.855 l -230.69,0 0,-65.844 219.54,0 c 3.57,0 6.49,-3.211 6.49,-7.145 l 0,-57.132 c 0,-3.93 -2.92,-7.141 -6.49,-7.141 l -219.54,0 0,-88.832 z m -500.26,-71.414 38.481,0 c 8.98,0.316 15.547,7.016 15.547,16.391 l 0,248.289 c 0,13.003 10.636,23.64 23.636,23.64 l 141.84,0 c 12.996,0 23.637,-10.637 23.637,-23.64 0,-81.688 0,-163.375 0,-245.063 0.047,-4.324 0.648,-19.617 17.621,-19.617 l 36.398,0 c 9.082,0 16.508,7.422 16.508,16.508 l 0,269.875 c 0,45.402 -37.14,82.543 -82.543,82.543 l -165.086,0 c -45.402,0 -82.547,-37.141 -82.547,-82.543 l 0,-269.875 c 0,-9.086 7.426,-16.508 16.508,-16.508 z m 1353.39,1453.061 0,-314.9 -553.62,0 c 10.01,-37.97 21.85,-75.7 35.9,-113.06 20.9,-55.58 46.24,-110.32 74.97,-164.687 l -1098.546,0 c 28.773,54.367 54.187,109.107 75.09,164.687 14.047,37.36 25.871,75.09 35.863,113.06 l -553.87497,0 0,18.46 0.29688,0 0,296.44 368.85909,0 C 291.613,1491.76 228.969,1391.11 189.07,1279.75 l 1611.03,0 c -39.9,111.36 -102.56,212.01 -182.43,296.44 l 368.88,0 z m 0,-333.37 0,-296.203 -422.68,0 c 45.54,-81.711 98.18,-162.754 154.2,-244.613 l -1447.008,0 c 55.891,81.859 108.54,162.902 154.126,244.613 l -422.85597,0 0,18.461 0.29688,0 0,277.742 174.18309,0 c -24,-78.25 -36.933,-161.31 -36.933,-247.34 0,-10.179 0.191,-20.304 0.551,-30.402 l 1708.32,0 c 0.36,10.098 0.54,20.223 0.54,30.402 0,86.03 -12.93,169.09 -36.93,247.34 l 174.19,0 z m 0,-314.668 0,-263.074 -1984.21797,0 0,18.465 0.29688,0 0,244.609 139.92609,0 c 6.785,-85.746 26.422,-167.922 56.992,-244.609 l 1590.073,0 c 30.58,76.687 50.21,158.863 57,244.609 l 139.93,0 z m 0,-281.535 0,-362.355 C 1986.55,133.289 1863.02,9.75781 1712.04,9.75781 l -1434.907,0 C 126.156,9.75781 2.62891,133.289 2.62891,284.262 l 0,362.355 1983.92109,0 z m -1577.874,966.493 198.98,0 c 128.828,0 257.805,0 386.637,0 128.977,0 257.957,0 387.077,0 l 199.11,0 c -153.01,143.1 -359.14,230.84 -585.894,230.84 -226.758,0 -432.898,-87.74 -585.91,-230.84"
         style="fill:#2847a3;fill-opacity:1;fill-rule:evenodd;stroke:none"
         id="path14"
         inkscape:connector-curvature="0" /></g></g></svg>